<svg
  viewBox="0 0 24 24"
  fill="none"
  xmlns="http://www.w3.org/2000/svg"
>
  <style>
    path {
      stroke: #A050BE;
    }
    @media (prefers-color-scheme: dark) {
      path {
        stroke: #A050BE;
      }
    }
  </style>
  <path
    d="M12 15.5C13.933 15.5 15.5 13.933 15.5 12C15.5 10.067 13.933 8.5 12 8.5C10.067 8.5 8.5 10.067 8.5 12C8.5 13.933 10.067 15.5 12 15.5Z"
    stroke-width="1.5"
    stroke-linecap="round"
    stroke-linejoin="round"
  />
  <path
    d="M16.83 4.9L18.23 5.9C18.96 6.42 19.33 7.27 19.24 8.16L18.8 12L19.24 15.84C19.33 16.73 18.96 17.58 18.23 18.1L16.83 19.1C16.18 19.56 15.36 19.72 14.54 19.52L12 18.8L9.46 19.52C8.64 19.72 7.82 19.56 7.17 19.1L5.77 18.1C5.04 17.58 4.67 16.73 4.76 15.84L5.2 12L4.76 8.16C4.67 7.27 5.04 6.42 5.77 5.9L7.17 4.9C7.82 4.44 8.64 4.28 9.46 4.48L12 5.2L14.54 4.48C15.36 4.28 16.18 4.44 16.83 4.9Z"
    stroke-width="1.5"
    stroke-linecap="round"
    stroke-linejoin="round"
  />
  <path
    d="M12 8.5V5.2"
    stroke-width="1.5"
    stroke-linecap="round"
    stroke-linejoin="round"
  />
  <path
    d="M8.86 10.25L5.77 5.9"
    stroke-width="1.5"
    stroke-linecap="round"
    stroke-linejoin="round"
  />
  <path
    d="M8.86 13.75L5.77 18.1"
    stroke-width="1.5"
    stroke-linecap="round"
    stroke-linejoin="round"
  />
  <path
    d="M15.14 13.75L18.23 18.1"
    stroke-width="1.5"
    stroke-linecap="round"
    stroke-linejoin="round"
  />
  <path
    d="M15.14 10.25L18.23 5.9"
    stroke-width="1.5"
    stroke-linecap="round"
    stroke-linejoin="round"
  />
  <path
    d="M12 15.5V18.8"
    stroke-width="1.5"
    stroke-linecap="round"
    stroke-linejoin="round"
  />
</svg>
